<?xml version="1.0" encoding="UTF-8"?>
<svg version="1.1" xmlns="http://www.w3.org/2000/svg" width="512" height="512">
<path d="M0 0 C0.82097168 0.19867676 1.64194336 0.39735352 2.48779297 0.60205078 C34.60374115 8.55213252 62.23491288 24.08731916 86 47 C86.82628906 47.763125 87.65257812 48.52625 88.50390625 49.3125 C109.75313584 69.50438429 124.16467894 96.71356788 132.375 124.625 C132.71494995 125.76654541 132.71494995 125.76654541 133.06176758 126.93115234 C137.23107483 142.07487909 138.55884342 157.41661145 138.4375 173.0625 C138.43293793 174.32501587 138.43293793 174.32501587 138.42828369 175.61303711 C138.30684437 198.49976153 134.5021085 220.07602232 128 242 C127.74379883 242.86898926 127.48759766 243.73797852 127.22363281 244.63330078 C115.32395467 284.22175323 94.42245132 321.16851909 71 355 C70.39309326 355.88026855 70.39309326 355.88026855 69.77392578 356.77832031 C51.08234906 383.76433269 30.10212885 409.26560317 7.66894531 433.21777344 C6.48700091 434.47994344 5.30683868 435.74378343 4.12792969 437.00878906 C-19.19932144 462.03926326 -19.19932144 462.03926326 -29.36328125 470.5625 C-30.94547823 471.95211453 -32.29540985 473.42372562 -33.6875 475 C-36 477 -36 477 -38.34375 476.9140625 C-41.7687778 475.73544999 -43.34557831 474.01329105 -45.8125 471.375 C-48.70333315 468.30967937 -51.63126217 465.40939135 -54.8203125 462.66015625 C-59.08730425 458.97162911 -63.08710662 455.06102855 -67.0625 451.0625 C-67.73087891 450.39798828 -68.39925781 449.73347656 -69.08789062 449.04882812 C-73.04918392 445.07983553 -76.80734817 440.99282072 -80.47045898 436.74780273 C-82.22932061 434.73795591 -84.07894631 432.85481046 -86 431 C-89.88007506 427.16435328 -93.45737974 423.14663022 -97 419 C-97.92931468 417.92285532 -98.85903544 416.84606091 -99.7890625 415.76953125 C-129.56386319 381.25065695 -156.64105463 344.36322984 -178 304 C-178.44053711 303.16952148 -178.88107422 302.33904297 -179.33496094 301.48339844 C-199.66822879 262.82277063 -214.43252893 220.21113314 -214.31567383 176.17407227 C-214.31251542 173.69958257 -214.33608723 171.22629642 -214.36132812 168.75195312 C-214.4216572 153.72806143 -212.63735808 138.92778705 -208.3125 124.5 C-208.05758789 123.63528076 -207.80267578 122.77056152 -207.54003906 121.87963867 C-199.01899561 93.93682622 -184.2023702 69.95394647 -164 49 C-163.236875 48.17371094 -162.47375 47.34742188 -161.6875 46.49609375 C-138.76329075 22.37146138 -107.89034525 7.88673852 -76 0 C-75.24058105 -0.19352051 -74.48116211 -0.38704102 -73.69873047 -0.58642578 C-51.2722143 -6.02299962 -22.33720794 -5.61076787 0 0 Z M-132 75 C-132.75796875 75.68707031 -133.5159375 76.37414062 -134.296875 77.08203125 C-159.58985667 101.11036384 -172.4218699 135.71604021 -173.94091797 170.01513672 C-174.66629941 206.66188684 -160.57742003 240.26797503 -136 267 C-135.39800781 267.67289063 -134.79601562 268.34578125 -134.17578125 269.0390625 C-109.58354305 295.1799303 -74.14206392 307.62200913 -39 309 C-3.13989921 309.67360679 31.21225574 294.35077658 57 270 C79.37948098 248.44158439 95.5550881 216.87583818 97.17700195 185.58520508 C97.46183855 169.01134628 97.57866669 153.08364839 93 137 C92.81808105 136.33307129 92.63616211 135.66614258 92.44873047 134.97900391 C86.3792977 113.21257521 74.05724382 94.54215692 59 78 C58.38511719 77.31292969 57.77023437 76.62585938 57.13671875 75.91796875 C32.81809481 50.15108929 -3.33689628 37.94455433 -38.01171875 36.91015625 C-73.83011434 37.98704919 -105.68896347 50.7340003 -132 75 Z " fill="#000000" transform="translate(294,19)"/>
<path d="M0 0 C0.66 0 1.32 0 2 0 C2.20502136 0.65653061 2.41004272 1.31306122 2.62127686 1.98948669 C5.28246819 10.2948748 8.33607348 18.41486052 11.75 26.4375 C12.01932468 27.07116737 12.28864937 27.70483475 12.56613541 28.35770416 C17.24987134 39.16220268 22.85621586 51.80559567 34.26647377 56.73895168 C42.76862191 59.87845737 51.70230367 61.08440312 60.6875 61.875 C61.72903481 61.96709307 61.72903481 61.96709307 62.79161072 62.0610466 C71.52188345 62.79380365 80.23936641 63.09068464 89 63 C87.69149364 65.88793985 86.29553519 67.95350175 84.05419922 70.1887207 C83.4595285 70.78646805 82.86485779 71.38421539 82.25216675 72.00007629 C81.28816452 72.95330025 81.28816452 72.95330025 80.3046875 73.92578125 C79.63841339 74.59159714 78.97213928 75.25741302 78.28567505 75.94340515 C76.87412939 77.35193182 75.46015619 78.75802933 74.04394531 80.16186523 C71.89858764 82.28911149 69.76119566 84.42410443 67.625 86.56054688 C66.24786382 87.93276149 64.8702736 89.30452063 63.4921875 90.67578125 C62.86166473 91.30519119 62.23114197 91.93460114 61.58151245 92.58308411 C57.70633727 96.41796643 53.71313903 100.06801218 49.58425903 103.62858582 C48.70030799 104.39377823 47.82670699 105.17329301 47 106 C47.18978425 113.85585038 48.47708337 121.62661742 49.84765625 129.34765625 C50.02380966 130.36677597 50.19996307 131.38589569 50.38145447 132.43589783 C50.93690235 135.6456401 51.49921588 138.85412449 52.0625 142.0625 C52.62838405 145.30316622 53.1927521 148.54407931 53.7542572 151.7855072 C54.10204422 153.79149248 54.45250075 155.79701718 54.80592346 157.80201721 C54.96286179 158.70403366 55.11980011 159.60605011 55.28149414 160.53540039 C55.49014854 161.72354088 55.49014854 161.72354088 55.70301819 162.9356842 C56 165 56 165 56 168 C50.24869959 166.39038892 45.36357413 163.58423176 40.1875 160.6875 C38.23391048 159.61305903 36.27944692 158.54020611 34.32421875 157.46875 C33.29989746 156.90671875 32.27557617 156.3446875 31.22021484 155.765625 C30.15754395 155.18296875 29.09487305 154.6003125 28 154 C26.88705566 153.38898438 25.77411133 152.77796875 24.62744141 152.1484375 C21.26077074 150.31058616 17.88215146 148.49667352 14.5 146.6875 C13.44449951 146.10637451 12.38899902 145.52524902 11.30151367 144.92651367 C10.30482666 144.39775635 9.30813965 143.86899902 8.28125 143.32421875 C7.40533203 142.85072998 6.52941406 142.37724121 5.62695312 141.8894043 C1.500019 140.49215327 -1.56121672 141.38982503 -5.4909668 143.05639648 C-6.30218994 143.49024658 -7.11341309 143.92409668 -7.94921875 144.37109375 C-8.87089844 144.85835937 -9.79257813 145.345625 -10.7421875 145.84765625 C-11.71414062 146.37230469 -12.68609375 146.89695313 -13.6875 147.4375 C-15.20150391 148.241875 -15.20150391 148.241875 -16.74609375 149.0625 C-18.8224998 150.16591678 -20.89720601 151.27253818 -22.97021484 152.38232422 C-25.80273306 153.8946744 -28.64287323 155.39097873 -31.48828125 156.87890625 C-32.33624268 157.32242432 -33.1842041 157.76594238 -34.05786133 158.22290039 C-35.26671997 158.8550647 -35.26671997 158.8550647 -36.5 159.5 C-40.68235259 161.68791794 -44.8362634 163.88960839 -48.90625 166.28125 C-52 168 -52 168 -54 168 C-52.67276272 157.97586581 -51.19627993 147.98593366 -49.46484375 138.0234375 C-49.32979431 137.24565445 -49.19474487 136.4678714 -49.05560303 135.66651917 C-48.37279583 131.74643908 -47.68166811 127.82798112 -46.98193359 123.91088867 C-46.7235484 122.44190938 -46.46524416 120.97291584 -46.20703125 119.50390625 C-46.08529037 118.83583954 -45.9635495 118.16777283 -45.83811951 117.47946167 C-44.36673556 110.55589955 -44.36673556 110.55589955 -46.25 104.12890625 C-46.8275 103.61199219 -47.405 103.09507812 -48 102.5625 C-48.556875 102.04816406 -49.11375 101.53382813 -49.6875 101.00390625 C-50.96592882 99.89607858 -52.24768822 98.79193405 -53.54296875 97.70385742 C-60.05898286 92.1438843 -66.08656539 86.09954114 -72.13916016 80.04614258 C-74.01837639 78.16914531 -75.90549623 76.30033111 -77.79296875 74.43164062 C-78.98746644 73.2400716 -80.18149464 72.04803171 -81.375 70.85546875 C-82.22324341 70.01800362 -82.22324341 70.01800362 -83.08862305 69.16362 C-87 65.22886447 -87 65.22886447 -87 63 C-85.96240791 63.01074051 -85.96240791 63.01074051 -84.90385437 63.021698 C-76.13470965 63.04834089 -67.42015032 62.64714563 -58.6875 61.875 C-57.65321617 61.78399458 -57.65321617 61.78399458 -56.59803772 61.69115067 C-44.85819195 60.57436285 -31.01651701 59.1762126 -22.76304531 49.85715866 C-17.15828872 42.78509363 -13.26260272 34.70195504 -9.75 26.4375 C-9.47850002 25.79948204 -9.20700005 25.16146408 -8.9272728 24.50411224 C-5.55184002 16.47175354 -2.59717558 8.31681755 0 0 Z " fill="#000000" transform="translate(255,96)"/>
</svg>
